#VRML V2.0 utf8
# Generated by mechanical/crystal_hc49s/generate_model.py
# KiCad units: 0.1 inch. PCB top z=0. Body top z=3.5 mm.
Shape { appearance Appearance { material Material {
diffuseColor 0.63 0.65 0.67
specularColor 0.6 0.6 0.6 shininess 0.7 } }
geometry IndexedFaceSet { solid TRUE creaseAngle 0.6
coord Coordinate { point [
2.2598425 -0.9448819 0.0000000,
2.4239195 -0.9305270 0.0000000,
2.5830112 -0.8878985 0.0000000,
2.7322835 -0.8182917 0.0000000,
2.8672009 -0.7238215 0.0000000,
2.9836640 -0.6073584 0.0000000,
3.0781342 -0.4724409 0.0000000,
3.1477411 -0.3231686 0.0000000,
3.1903695 -0.1640770 0.0000000,
3.2047244 0.0000000 0.0000000,
3.1903695 0.1640770 0.0000000,
3.1477411 0.3231686 0.0000000,
3.0781342 0.4724409 0.0000000,
2.9836640 0.6073584 0.0000000,
2.8672009 0.7238215 0.0000000,
2.7322835 0.8182917 0.0000000,
2.5830112 0.8878985 0.0000000,
2.4239195 0.9305270 0.0000000,
2.2598425 0.9448819 0.0000000,
-0.3385827 0.9448819 0.0000000,
-0.5026597 0.9305270 0.0000000,
-0.6617513 0.8878985 0.0000000,
-0.8110236 0.8182917 0.0000000,
-0.9459410 0.7238215 0.0000000,
-1.0624042 0.6073584 0.0000000,
-1.1568744 0.4724409 0.0000000,
-1.2264812 0.3231686 0.0000000,
-1.2691097 0.1640770 0.0000000,
-1.2834646 0.0000000 0.0000000,
-1.2691097 -0.1640770 0.0000000,
-1.2264812 -0.3231686 0.0000000,
-1.1568744 -0.4724409 0.0000000,
-1.0624042 -0.6073584 0.0000000,
-0.9459410 -0.7238215 0.0000000,
-0.8110236 -0.8182917 0.0000000,
-0.6617513 -0.8878985 0.0000000,
-0.5026597 -0.9305270 0.0000000,
-0.3385827 -0.9448819 0.0000000,
2.2598425 -0.9448819 0.1377953,
2.4239195 -0.9305270 0.1377953,
2.5830112 -0.8878985 0.1377953,
2.7322835 -0.8182917 0.1377953,
2.8672009 -0.7238215 0.1377953,
2.9836640 -0.6073584 0.1377953,
3.0781342 -0.4724409 0.1377953,
3.1477411 -0.3231686 0.1377953,
3.1903695 -0.1640770 0.1377953,
3.2047244 0.0000000 0.1377953,
3.1903695 0.1640770 0.1377953,
3.1477411 0.3231686 0.1377953,
3.0781342 0.4724409 0.1377953,
2.9836640 0.6073584 0.1377953,
2.8672009 0.7238215 0.1377953,
2.7322835 0.8182917 0.1377953,
2.5830112 0.8878985 0.1377953,
2.4239195 0.9305270 0.1377953,
2.2598425 0.9448819 0.1377953,
-0.3385827 0.9448819 0.1377953,
-0.5026597 0.9305270 0.1377953,
-0.6617513 0.8878985 0.1377953,
-0.8110236 0.8182917 0.1377953,
-0.9459410 0.7238215 0.1377953,
-1.0624042 0.6073584 0.1377953,
-1.1568744 0.4724409 0.1377953,
-1.2264812 0.3231686 0.1377953,
-1.2691097 0.1640770 0.1377953,
-1.2834646 0.0000000 0.1377953,
-1.2691097 -0.1640770 0.1377953,
-1.2264812 -0.3231686 0.1377953,
-1.1568744 -0.4724409 0.1377953,
-1.0624042 -0.6073584 0.1377953,
-0.9459410 -0.7238215 0.1377953,
-0.8110236 -0.8182917 0.1377953,
-0.6617513 -0.8878985 0.1377953,
-0.5026597 -0.9305270 0.1377953,
-0.3385827 -0.9448819 0.1377953,
] } coordIndex [
37,36,35,34,33,32,31,30,29,28,27,26,25,24,23,22,21,20,19,18,17,16,15,14,13,12,11,10,9,8,7,6,5,4,3,2,1,0,-1,
38,39,40,41,42,43,44,45,46,47,48,49,50,51,52,53,54,55,56,57,58,59,60,61,62,63,64,65,66,67,68,69,70,71,72,73,74,75,-1,
0,1,39,38,-1,
1,2,40,39,-1,
2,3,41,40,-1,
3,4,42,41,-1,
4,5,43,42,-1,
5,6,44,43,-1,
6,7,45,44,-1,
7,8,46,45,-1,
8,9,47,46,-1,
9,10,48,47,-1,
10,11,49,48,-1,
11,12,50,49,-1,
12,13,51,50,-1,
13,14,52,51,-1,
14,15,53,52,-1,
15,16,54,53,-1,
16,17,55,54,-1,
17,18,56,55,-1,
18,19,57,56,-1,
19,20,58,57,-1,
20,21,59,58,-1,
21,22,60,59,-1,
22,23,61,60,-1,
23,24,62,61,-1,
24,25,63,62,-1,
25,26,64,63,-1,
26,27,65,64,-1,
27,28,66,65,-1,
28,29,67,66,-1,
29,30,68,67,-1,
30,31,69,68,-1,
31,32,70,69,-1,
32,33,71,70,-1,
33,34,72,71,-1,
34,35,73,72,-1,
35,36,74,73,-1,
36,37,75,74,-1,
37,0,38,75,-1,
] } }
Shape { appearance Appearance { material Material {
diffuseColor 0.76 0.78 0.8
specularColor 0.6 0.6 0.6 shininess 0.7 } }
geometry IndexedFaceSet { solid TRUE creaseAngle 0.6
coord Coordinate { point [
2.2204724 -0.7480315 0.1377953,
2.3503667 -0.7366672 0.1377953,
2.4763143 -0.7029197 0.1377953,
2.5944882 -0.6478143 0.1377953,
2.7012978 -0.5730254 0.1377953,
2.7934978 -0.4808254 0.1377953,
2.8682867 -0.3740157 0.1377953,
2.9233921 -0.2558418 0.1377953,
2.9571397 -0.1298943 0.1377953,
2.9685039 0.0000000 0.1377953,
2.9571397 0.1298943 0.1377953,
2.9233921 0.2558418 0.1377953,
2.8682867 0.3740157 0.1377953,
2.7934978 0.4808254 0.1377953,
2.7012978 0.5730254 0.1377953,
2.5944882 0.6478143 0.1377953,
2.4763143 0.7029197 0.1377953,
2.3503667 0.7366672 0.1377953,
2.2204724 0.7480315 0.1377953,
-0.2992126 0.7480315 0.1377953,
-0.4291069 0.7366672 0.1377953,
-0.5550544 0.7029197 0.1377953,
-0.6732283 0.6478143 0.1377953,
-0.7800380 0.5730254 0.1377953,
-0.8722380 0.4808254 0.1377953,
-0.9470269 0.3740157 0.1377953,
-1.0021323 0.2558418 0.1377953,
-1.0358798 0.1298943 0.1377953,
-1.0472441 0.0000000 0.1377953,
-1.0358798 -0.1298943 0.1377953,
-1.0021323 -0.2558418 0.1377953,
-0.9470269 -0.3740157 0.1377953,
-0.8722380 -0.4808254 0.1377953,
-0.7800380 -0.5730254 0.1377953,
-0.6732283 -0.6478143 0.1377953,
-0.5550544 -0.7029197 0.1377953,
-0.4291069 -0.7366672 0.1377953,
-0.2992126 -0.7480315 0.1377953,
2.2204724 -0.7480315 1.3779528,
2.3503667 -0.7366672 1.3779528,
2.4763143 -0.7029197 1.3779528,
2.5944882 -0.6478143 1.3779528,
2.7012978 -0.5730254 1.3779528,
2.7934978 -0.4808254 1.3779528,
2.8682867 -0.3740157 1.3779528,
2.9233921 -0.2558418 1.3779528,
2.9571397 -0.1298943 1.3779528,
2.9685039 0.0000000 1.3779528,
2.9571397 0.1298943 1.3779528,
2.9233921 0.2558418 1.3779528,
2.8682867 0.3740157 1.3779528,
2.7934978 0.4808254 1.3779528,
2.7012978 0.5730254 1.3779528,
2.5944882 0.6478143 1.3779528,
2.4763143 0.7029197 1.3779528,
2.3503667 0.7366672 1.3779528,
2.2204724 0.7480315 1.3779528,
-0.2992126 0.7480315 1.3779528,
-0.4291069 0.7366672 1.3779528,
-0.5550544 0.7029197 1.3779528,
-0.6732283 0.6478143 1.3779528,
-0.7800380 0.5730254 1.3779528,
-0.8722380 0.4808254 1.3779528,
-0.9470269 0.3740157 1.3779528,
-1.0021323 0.2558418 1.3779528,
-1.0358798 0.1298943 1.3779528,
-1.0472441 0.0000000 1.3779528,
-1.0358798 -0.1298943 1.3779528,
-1.0021323 -0.2558418 1.3779528,
-0.9470269 -0.3740157 1.3779528,
-0.8722380 -0.4808254 1.3779528,
-0.7800380 -0.5730254 1.3779528,
-0.6732283 -0.6478143 1.3779528,
-0.5550544 -0.7029197 1.3779528,
-0.4291069 -0.7366672 1.3779528,
-0.2992126 -0.7480315 1.3779528,
] } coordIndex [
37,36,35,34,33,32,31,30,29,28,27,26,25,24,23,22,21,20,19,18,17,16,15,14,13,12,11,10,9,8,7,6,5,4,3,2,1,0,-1,
38,39,40,41,42,43,44,45,46,47,48,49,50,51,52,53,54,55,56,57,58,59,60,61,62,63,64,65,66,67,68,69,70,71,72,73,74,75,-1,
0,1,39,38,-1,
1,2,40,39,-1,
2,3,41,40,-1,
3,4,42,41,-1,
4,5,43,42,-1,
5,6,44,43,-1,
6,7,45,44,-1,
7,8,46,45,-1,
8,9,47,46,-1,
9,10,48,47,-1,
10,11,49,48,-1,
11,12,50,49,-1,
12,13,51,50,-1,
13,14,52,51,-1,
14,15,53,52,-1,
15,16,54,53,-1,
16,17,55,54,-1,
17,18,56,55,-1,
18,19,57,56,-1,
19,20,58,57,-1,
20,21,59,58,-1,
21,22,60,59,-1,
22,23,61,60,-1,
23,24,62,61,-1,
24,25,63,62,-1,
25,26,64,63,-1,
26,27,65,64,-1,
27,28,66,65,-1,
28,29,67,66,-1,
29,30,68,67,-1,
30,31,69,68,-1,
31,32,70,69,-1,
32,33,71,70,-1,
33,34,72,71,-1,
34,35,73,72,-1,
35,36,74,73,-1,
36,37,75,74,-1,
37,0,38,75,-1,
] } }
Shape { appearance Appearance { material Material {
diffuseColor 0.72 0.74 0.76
specularColor 0.6 0.6 0.6 shininess 0.7 } }
geometry IndexedFaceSet { solid TRUE creaseAngle 0.6
coord Coordinate { point [
0.0846457 0.0000000 -1.1811024,
0.0817614 0.0219079 -1.1811024,
0.0733053 0.0423228 -1.1811024,
0.0598535 0.0598535 -1.1811024,
0.0423228 0.0733053 -1.1811024,
0.0219079 0.0817614 -1.1811024,
0.0000000 0.0846457 -1.1811024,
-0.0219079 0.0817614 -1.1811024,
-0.0423228 0.0733053 -1.1811024,
-0.0598535 0.0598535 -1.1811024,
-0.0733053 0.0423228 -1.1811024,
-0.0817614 0.0219079 -1.1811024,
-0.0846457 0.0000000 -1.1811024,
-0.0817614 -0.0219079 -1.1811024,
-0.0733053 -0.0423228 -1.1811024,
-0.0598535 -0.0598535 -1.1811024,
-0.0423228 -0.0733053 -1.1811024,
-0.0219079 -0.0817614 -1.1811024,
-0.0000000 -0.0846457 -1.1811024,
0.0219079 -0.0817614 -1.1811024,
0.0423228 -0.0733053 -1.1811024,
0.0598535 -0.0598535 -1.1811024,
0.0733053 -0.0423228 -1.1811024,
0.0817614 -0.0219079 -1.1811024,
0.0846457 0.0000000 0.0393701,
0.0817614 0.0219079 0.0393701,
0.0733053 0.0423228 0.0393701,
0.0598535 0.0598535 0.0393701,
0.0423228 0.0733053 0.0393701,
0.0219079 0.0817614 0.0393701,
0.0000000 0.0846457 0.0393701,
-0.0219079 0.0817614 0.0393701,
-0.0423228 0.0733053 0.0393701,
-0.0598535 0.0598535 0.0393701,
-0.0733053 0.0423228 0.0393701,
-0.0817614 0.0219079 0.0393701,
-0.0846457 0.0000000 0.0393701,
-0.0817614 -0.0219079 0.0393701,
-0.0733053 -0.0423228 0.0393701,
-0.0598535 -0.0598535 0.0393701,
-0.0423228 -0.0733053 0.0393701,
-0.0219079 -0.0817614 0.0393701,
-0.0000000 -0.0846457 0.0393701,
0.0219079 -0.0817614 0.0393701,
0.0423228 -0.0733053 0.0393701,
0.0598535 -0.0598535 0.0393701,
0.0733053 -0.0423228 0.0393701,
0.0817614 -0.0219079 0.0393701,
] } coordIndex [
23,22,21,20,19,18,17,16,15,14,13,12,11,10,9,8,7,6,5,4,3,2,1,0,-1,
24,25,26,27,28,29,30,31,32,33,34,35,36,37,38,39,40,41,42,43,44,45,46,47,-1,
0,1,25,24,-1,
1,2,26,25,-1,
2,3,27,26,-1,
3,4,28,27,-1,
4,5,29,28,-1,
5,6,30,29,-1,
6,7,31,30,-1,
7,8,32,31,-1,
8,9,33,32,-1,
9,10,34,33,-1,
10,11,35,34,-1,
11,12,36,35,-1,
12,13,37,36,-1,
13,14,38,37,-1,
14,15,39,38,-1,
15,16,40,39,-1,
16,17,41,40,-1,
17,18,42,41,-1,
18,19,43,42,-1,
19,20,44,43,-1,
20,21,45,44,-1,
21,22,46,45,-1,
22,23,47,46,-1,
23,0,24,47,-1,
] } }
Shape { appearance Appearance { material Material {
diffuseColor 0.72 0.74 0.76
specularColor 0.6 0.6 0.6 shininess 0.7 } }
geometry IndexedFaceSet { solid TRUE creaseAngle 0.6
coord Coordinate { point [
2.0059055 0.0000000 -1.1811024,
2.0030213 0.0219079 -1.1811024,
1.9945651 0.0423228 -1.1811024,
1.9811134 0.0598535 -1.1811024,
1.9635827 0.0733053 -1.1811024,
1.9431678 0.0817614 -1.1811024,
1.9212598 0.0846457 -1.1811024,
1.8993519 0.0817614 -1.1811024,
1.8789370 0.0733053 -1.1811024,
1.8614063 0.0598535 -1.1811024,
1.8479545 0.0423228 -1.1811024,
1.8394984 0.0219079 -1.1811024,
1.8366142 0.0000000 -1.1811024,
1.8394984 -0.0219079 -1.1811024,
1.8479545 -0.0423228 -1.1811024,
1.8614063 -0.0598535 -1.1811024,
1.8789370 -0.0733053 -1.1811024,
1.8993519 -0.0817614 -1.1811024,
1.9212598 -0.0846457 -1.1811024,
1.9431678 -0.0817614 -1.1811024,
1.9635827 -0.0733053 -1.1811024,
1.9811134 -0.0598535 -1.1811024,
1.9945651 -0.0423228 -1.1811024,
2.0030213 -0.0219079 -1.1811024,
2.0059055 0.0000000 0.0393701,
2.0030213 0.0219079 0.0393701,
1.9945651 0.0423228 0.0393701,
1.9811134 0.0598535 0.0393701,
1.9635827 0.0733053 0.0393701,
1.9431678 0.0817614 0.0393701,
1.9212598 0.0846457 0.0393701,
1.8993519 0.0817614 0.0393701,
1.8789370 0.0733053 0.0393701,
1.8614063 0.0598535 0.0393701,
1.8479545 0.0423228 0.0393701,
1.8394984 0.0219079 0.0393701,
1.8366142 0.0000000 0.0393701,
1.8394984 -0.0219079 0.0393701,
1.8479545 -0.0423228 0.0393701,
1.8614063 -0.0598535 0.0393701,
1.8789370 -0.0733053 0.0393701,
1.8993519 -0.0817614 0.0393701,
1.9212598 -0.0846457 0.0393701,
1.9431678 -0.0817614 0.0393701,
1.9635827 -0.0733053 0.0393701,
1.9811134 -0.0598535 0.0393701,
1.9945651 -0.0423228 0.0393701,
2.0030213 -0.0219079 0.0393701,
] } coordIndex [
23,22,21,20,19,18,17,16,15,14,13,12,11,10,9,8,7,6,5,4,3,2,1,0,-1,
24,25,26,27,28,29,30,31,32,33,34,35,36,37,38,39,40,41,42,43,44,45,46,47,-1,
0,1,25,24,-1,
1,2,26,25,-1,
2,3,27,26,-1,
3,4,28,27,-1,
4,5,29,28,-1,
5,6,30,29,-1,
6,7,31,30,-1,
7,8,32,31,-1,
8,9,33,32,-1,
9,10,34,33,-1,
10,11,35,34,-1,
11,12,36,35,-1,
12,13,37,36,-1,
13,14,38,37,-1,
14,15,39,38,-1,
15,16,40,39,-1,
16,17,41,40,-1,
17,18,42,41,-1,
18,19,43,42,-1,
19,20,44,43,-1,
20,21,45,44,-1,
21,22,46,45,-1,
22,23,47,46,-1,
23,0,24,47,-1,
] } }
