#VRML V2.0 utf8
# Generated by mechanical/zif/generate.py
# Coordinates in 0.1 inch units; scale 1 in KiCad.
Shape { appearance Appearance { material Material { diffuseColor 0.88 0.87 0.78 specularColor 0.3 0.3 0.3 shininess 0.15 } }
geometry IndexedFaceSet { solid FALSE creaseAngle 0.6 coord Coordinate { point [
-6.440000 15.000000 4.724409,
6.440000 15.000000 4.724409,
6.440000 -15.000000 4.724409,
-6.440000 -15.000000 4.724409,
-6.440000 15.000000 5.425197,
6.440000 15.000000 5.425197,
6.440000 -15.000000 5.425197,
-6.440000 -15.000000 5.425197,
] } coordIndex [
0,1,2,3,-1,
4,5,1,0,-1,
5,6,2,1,-1,
6,7,3,2,-1,
7,4,0,3,-1,
7,6,5,4,-1,
] } }
Shape { appearance Appearance { material Material { diffuseColor 0.65 0.5 0.21 specularColor 0.3 0.3 0.3 shininess 0.6 } }
geometry IndexedFaceSet { solid FALSE creaseAngle 0.6 coord Coordinate { point [
-4.803150 12.263780 5.425197,
4.803150 12.263780 5.425197,
4.803150 2.736220 5.425197,
-4.803150 2.736220 5.425197,
-4.803150 12.263780 6.732283,
4.803150 12.263780 6.732283,
4.803150 2.736220 6.732283,
-4.803150 2.736220 6.732283,
-4.803150 -2.736220 5.425197,
4.803150 -2.736220 5.425197,
4.803150 -12.263780 5.425197,
-4.803150 -12.263780 5.425197,
-4.803150 -2.736220 6.732283,
4.803150 -2.736220 6.732283,
4.803150 -12.263780 6.732283,
-4.803150 -12.263780 6.732283,
] } coordIndex [
0,1,2,3,-1,
4,5,1,0,-1,
5,6,2,1,-1,
6,7,3,2,-1,
7,4,0,3,-1,
7,6,5,4,-1,
8,9,10,11,-1,
12,13,9,8,-1,
13,14,10,9,-1,
14,15,11,10,-1,
15,12,8,11,-1,
15,14,13,12,-1,
] } }
Shape { appearance Appearance { material Material { diffuseColor 0.72 0.53 0.2 specularColor 0.3 0.3 0.3 shininess 0.6 } }
geometry IndexedFaceSet { solid FALSE creaseAngle 0.6 coord Coordinate { point [
-6.550000 14.590000 2.974409,
-6.450000 14.590000 2.974409,
-6.450000 14.410000 2.974409,
-6.550000 14.410000 2.974409,
-6.550000 14.590000 4.960630,
-6.450000 14.590000 4.960630,
-6.450000 14.410000 4.960630,
-6.550000 14.410000 4.960630,
-6.550000 13.590000 2.974409,
-6.450000 13.590000 2.974409,
-6.450000 13.410000 2.974409,
-6.550000 13.410000 2.974409,
-6.550000 13.590000 4.960630,
-6.450000 13.590000 4.960630,
-6.450000 13.410000 4.960630,
-6.550000 13.410000 4.960630,
-6.550000 12.590000 2.974409,
-6.450000 12.590000 2.974409,
-6.450000 12.410000 2.974409,
-6.550000 12.410000 2.974409,
-6.550000 12.590000 4.960630,
-6.450000 12.590000 4.960630,
-6.450000 12.410000 4.960630,
-6.550000 12.410000 4.960630,
-6.550000 11.590000 2.974409,
-6.450000 11.590000 2.974409,
-6.450000 11.410000 2.974409,
-6.550000 11.410000 2.974409,
-6.550000 11.590000 4.960630,
-6.450000 11.590000 4.960630,
-6.450000 11.410000 4.960630,
-6.550000 11.410000 4.960630,
-6.550000 10.590000 2.974409,
-6.450000 10.590000 2.974409,
-6.450000 10.410000 2.974409,
-6.550000 10.410000 2.974409,
-6.550000 10.590000 4.960630,
-6.450000 10.590000 4.960630,
-6.450000 10.410000 4.960630,
-6.550000 10.410000 4.960630,
-6.550000 9.590000 2.974409,
-6.450000 9.590000 2.974409,
-6.450000 9.410000 2.974409,
-6.550000 9.410000 2.974409,
-6.550000 9.590000 4.960630,
-6.450000 9.590000 4.960630,
-6.450000 9.410000 4.960630,
-6.550000 9.410000 4.960630,
-6.550000 8.590000 2.974409,
-6.450000 8.590000 2.974409,
-6.450000 8.410000 2.974409,
-6.550000 8.410000 2.974409,
-6.550000 8.590000 4.960630,
-6.450000 8.590000 4.960630,
-6.450000 8.410000 4.960630,
-6.550000 8.410000 4.960630,
-6.550000 7.590000 2.974409,
-6.450000 7.590000 2.974409,
-6.450000 7.410000 2.974409,
-6.550000 7.410000 2.974409,
-6.550000 7.590000 4.960630,
-6.450000 7.590000 4.960630,
-6.450000 7.410000 4.960630,
-6.550000 7.410000 4.960630,
-6.550000 6.590000 2.974409,
-6.450000 6.590000 2.974409,
-6.450000 6.410000 2.974409,
-6.550000 6.410000 2.974409,
-6.550000 6.590000 4.960630,
-6.450000 6.590000 4.960630,
-6.450000 6.410000 4.960630,
-6.550000 6.410000 4.960630,
-6.550000 5.590000 2.974409,
-6.450000 5.590000 2.974409,
-6.450000 5.410000 2.974409,
-6.550000 5.410000 2.974409,
-6.550000 5.590000 4.960630,
-6.450000 5.590000 4.960630,
-6.450000 5.410000 4.960630,
-6.550000 5.410000 4.960630,
-6.550000 4.590000 2.974409,
-6.450000 4.590000 2.974409,
-6.450000 4.410000 2.974409,
-6.550000 4.410000 2.974409,
-6.550000 4.590000 4.960630,
-6.450000 4.590000 4.960630,
-6.450000 4.410000 4.960630,
-6.550000 4.410000 4.960630,
-6.550000 3.590000 2.974409,
-6.450000 3.590000 2.974409,
-6.450000 3.410000 2.974409,
-6.550000 3.410000 2.974409,
-6.550000 3.590000 4.960630,
-6.450000 3.590000 4.960630,
-6.450000 3.410000 4.960630,
-6.550000 3.410000 4.960630,
-6.550000 2.590000 2.974409,
-6.450000 2.590000 2.974409,
-6.450000 2.410000 2.974409,
-6.550000 2.410000 2.974409,
-6.550000 2.590000 4.960630,
-6.450000 2.590000 4.960630,
-6.450000 2.410000 4.960630,
-6.550000 2.410000 4.960630,
-6.550000 1.590000 2.974409,
-6.450000 1.590000 2.974409,
-6.450000 1.410000 2.974409,
-6.550000 1.410000 2.974409,
-6.550000 1.590000 4.960630,
-6.450000 1.590000 4.960630,
-6.450000 1.410000 4.960630,
-6.550000 1.410000 4.960630,
-6.550000 0.590000 2.974409,
-6.450000 0.590000 2.974409,
-6.450000 0.410000 2.974409,
-6.550000 0.410000 2.974409,
-6.550000 0.590000 4.960630,
-6.450000 0.590000 4.960630,
-6.450000 0.410000 4.960630,
-6.550000 0.410000 4.960630,
-6.550000 -0.410000 2.974409,
-6.450000 -0.410000 2.974409,
-6.450000 -0.590000 2.974409,
-6.550000 -0.590000 2.974409,
-6.550000 -0.410000 4.960630,
-6.450000 -0.410000 4.960630,
-6.450000 -0.590000 4.960630,
-6.550000 -0.590000 4.960630,
-6.550000 -1.410000 2.974409,
-6.450000 -1.410000 2.974409,
-6.450000 -1.590000 2.974409,
-6.550000 -1.590000 2.974409,
-6.550000 -1.410000 4.960630,
-6.450000 -1.410000 4.960630,
-6.450000 -1.590000 4.960630,
-6.550000 -1.590000 4.960630,
-6.550000 -2.410000 2.974409,
-6.450000 -2.410000 2.974409,
-6.450000 -2.590000 2.974409,
-6.550000 -2.590000 2.974409,
-6.550000 -2.410000 4.960630,
-6.450000 -2.410000 4.960630,
-6.450000 -2.590000 4.960630,
-6.550000 -2.590000 4.960630,
-6.550000 -3.410000 2.974409,
-6.450000 -3.410000 2.974409,
-6.450000 -3.590000 2.974409,
-6.550000 -3.590000 2.974409,
-6.550000 -3.410000 4.960630,
-6.450000 -3.410000 4.960630,
-6.450000 -3.590000 4.960630,
-6.550000 -3.590000 4.960630,
-6.550000 -4.410000 2.974409,
-6.450000 -4.410000 2.974409,
-6.450000 -4.590000 2.974409,
-6.550000 -4.590000 2.974409,
-6.550000 -4.410000 4.960630,
-6.450000 -4.410000 4.960630,
-6.450000 -4.590000 4.960630,
-6.550000 -4.590000 4.960630,
-6.550000 -5.410000 2.974409,
-6.450000 -5.410000 2.974409,
-6.450000 -5.590000 2.974409,
-6.550000 -5.590000 2.974409,
-6.550000 -5.410000 4.960630,
-6.450000 -5.410000 4.960630,
-6.450000 -5.590000 4.960630,
-6.550000 -5.590000 4.960630,
-6.550000 -6.410000 2.974409,
-6.450000 -6.410000 2.974409,
-6.450000 -6.590000 2.974409,
-6.550000 -6.590000 2.974409,
-6.550000 -6.410000 4.960630,
-6.450000 -6.410000 4.960630,
-6.450000 -6.590000 4.960630,
-6.550000 -6.590000 4.960630,
-6.550000 -7.410000 2.974409,
-6.450000 -7.410000 2.974409,
-6.450000 -7.590000 2.974409,
-6.550000 -7.590000 2.974409,
-6.550000 -7.410000 4.960630,
-6.450000 -7.410000 4.960630,
-6.450000 -7.590000 4.960630,
-6.550000 -7.590000 4.960630,
-6.550000 -8.410000 2.974409,
-6.450000 -8.410000 2.974409,
-6.450000 -8.590000 2.974409,
-6.550000 -8.590000 2.974409,
-6.550000 -8.410000 4.960630,
-6.450000 -8.410000 4.960630,
-6.450000 -8.590000 4.960630,
-6.550000 -8.590000 4.960630,
-6.550000 -9.410000 2.974409,
-6.450000 -9.410000 2.974409,
-6.450000 -9.590000 2.974409,
-6.550000 -9.590000 2.974409,
-6.550000 -9.410000 4.960630,
-6.450000 -9.410000 4.960630,
-6.450000 -9.590000 4.960630,
-6.550000 -9.590000 4.960630,
-6.550000 -10.410000 2.974409,
-6.450000 -10.410000 2.974409,
-6.450000 -10.590000 2.974409,
-6.550000 -10.590000 2.974409,
-6.550000 -10.410000 4.960630,
-6.450000 -10.410000 4.960630,
-6.450000 -10.590000 4.960630,
-6.550000 -10.590000 4.960630,
-6.550000 -11.410000 2.974409,
-6.450000 -11.410000 2.974409,
-6.450000 -11.590000 2.974409,
-6.550000 -11.590000 2.974409,
-6.550000 -11.410000 4.960630,
-6.450000 -11.410000 4.960630,
-6.450000 -11.590000 4.960630,
-6.550000 -11.590000 4.960630,
-6.550000 -12.410000 2.974409,
-6.450000 -12.410000 2.974409,
-6.450000 -12.590000 2.974409,
-6.550000 -12.590000 2.974409,
-6.550000 -12.410000 4.960630,
-6.450000 -12.410000 4.960630,
-6.450000 -12.590000 4.960630,
-6.550000 -12.590000 4.960630,
-6.550000 -13.410000 2.974409,
-6.450000 -13.410000 2.974409,
-6.450000 -13.590000 2.974409,
-6.550000 -13.590000 2.974409,
-6.550000 -13.410000 4.960630,
-6.450000 -13.410000 4.960630,
-6.450000 -13.590000 4.960630,
-6.550000 -13.590000 4.960630,
-6.550000 -14.410000 2.974409,
-6.450000 -14.410000 2.974409,
-6.450000 -14.590000 2.974409,
-6.550000 -14.590000 2.974409,
-6.550000 -14.410000 4.960630,
-6.450000 -14.410000 4.960630,
-6.450000 -14.590000 4.960630,
-6.550000 -14.590000 4.960630,
6.450000 14.590000 2.974409,
6.550000 14.590000 2.974409,
6.550000 14.410000 2.974409,
6.450000 14.410000 2.974409,
6.450000 14.590000 4.960630,
6.550000 14.590000 4.960630,
6.550000 14.410000 4.960630,
6.450000 14.410000 4.960630,
6.450000 13.590000 2.974409,
6.550000 13.590000 2.974409,
6.550000 13.410000 2.974409,
6.450000 13.410000 2.974409,
6.450000 13.590000 4.960630,
6.550000 13.590000 4.960630,
6.550000 13.410000 4.960630,
6.450000 13.410000 4.960630,
6.450000 12.590000 2.974409,
6.550000 12.590000 2.974409,
6.550000 12.410000 2.974409,
6.450000 12.410000 2.974409,
6.450000 12.590000 4.960630,
6.550000 12.590000 4.960630,
6.550000 12.410000 4.960630,
6.450000 12.410000 4.960630,
6.450000 11.590000 2.974409,
6.550000 11.590000 2.974409,
6.550000 11.410000 2.974409,
6.450000 11.410000 2.974409,
6.450000 11.590000 4.960630,
6.550000 11.590000 4.960630,
6.550000 11.410000 4.960630,
6.450000 11.410000 4.960630,
6.450000 10.590000 2.974409,
6.550000 10.590000 2.974409,
6.550000 10.410000 2.974409,
6.450000 10.410000 2.974409,
6.450000 10.590000 4.960630,
6.550000 10.590000 4.960630,
6.550000 10.410000 4.960630,
6.450000 10.410000 4.960630,
6.450000 9.590000 2.974409,
6.550000 9.590000 2.974409,
6.550000 9.410000 2.974409,
6.450000 9.410000 2.974409,
6.450000 9.590000 4.960630,
6.550000 9.590000 4.960630,
6.550000 9.410000 4.960630,
6.450000 9.410000 4.960630,
6.450000 8.590000 2.974409,
6.550000 8.590000 2.974409,
6.550000 8.410000 2.974409,
6.450000 8.410000 2.974409,
6.450000 8.590000 4.960630,
6.550000 8.590000 4.960630,
6.550000 8.410000 4.960630,
6.450000 8.410000 4.960630,
6.450000 7.590000 2.974409,
6.550000 7.590000 2.974409,
6.550000 7.410000 2.974409,
6.450000 7.410000 2.974409,
6.450000 7.590000 4.960630,
6.550000 7.590000 4.960630,
6.550000 7.410000 4.960630,
6.450000 7.410000 4.960630,
6.450000 6.590000 2.974409,
6.550000 6.590000 2.974409,
6.550000 6.410000 2.974409,
6.450000 6.410000 2.974409,
6.450000 6.590000 4.960630,
6.550000 6.590000 4.960630,
6.550000 6.410000 4.960630,
6.450000 6.410000 4.960630,
6.450000 5.590000 2.974409,
6.550000 5.590000 2.974409,
6.550000 5.410000 2.974409,
6.450000 5.410000 2.974409,
6.450000 5.590000 4.960630,
6.550000 5.590000 4.960630,
6.550000 5.410000 4.960630,
6.450000 5.410000 4.960630,
6.450000 4.590000 2.974409,
6.550000 4.590000 2.974409,
6.550000 4.410000 2.974409,
6.450000 4.410000 2.974409,
6.450000 4.590000 4.960630,
6.550000 4.590000 4.960630,
6.550000 4.410000 4.960630,
6.450000 4.410000 4.960630,
6.450000 3.590000 2.974409,
6.550000 3.590000 2.974409,
6.550000 3.410000 2.974409,
6.450000 3.410000 2.974409,
6.450000 3.590000 4.960630,
6.550000 3.590000 4.960630,
6.550000 3.410000 4.960630,
6.450000 3.410000 4.960630,
6.450000 2.590000 2.974409,
6.550000 2.590000 2.974409,
6.550000 2.410000 2.974409,
6.450000 2.410000 2.974409,
6.450000 2.590000 4.960630,
6.550000 2.590000 4.960630,
6.550000 2.410000 4.960630,
6.450000 2.410000 4.960630,
6.450000 1.590000 2.974409,
6.550000 1.590000 2.974409,
6.550000 1.410000 2.974409,
6.450000 1.410000 2.974409,
6.450000 1.590000 4.960630,
6.550000 1.590000 4.960630,
6.550000 1.410000 4.960630,
6.450000 1.410000 4.960630,
6.450000 0.590000 2.974409,
6.550000 0.590000 2.974409,
6.550000 0.410000 2.974409,
6.450000 0.410000 2.974409,
6.450000 0.590000 4.960630,
6.550000 0.590000 4.960630,
6.550000 0.410000 4.960630,
6.450000 0.410000 4.960630,
6.450000 -0.410000 2.974409,
6.550000 -0.410000 2.974409,
6.550000 -0.590000 2.974409,
6.450000 -0.590000 2.974409,
6.450000 -0.410000 4.960630,
6.550000 -0.410000 4.960630,
6.550000 -0.590000 4.960630,
6.450000 -0.590000 4.960630,
6.450000 -1.410000 2.974409,
6.550000 -1.410000 2.974409,
6.550000 -1.590000 2.974409,
6.450000 -1.590000 2.974409,
6.450000 -1.410000 4.960630,
6.550000 -1.410000 4.960630,
6.550000 -1.590000 4.960630,
6.450000 -1.590000 4.960630,
6.450000 -2.410000 2.974409,
6.550000 -2.410000 2.974409,
6.550000 -2.590000 2.974409,
6.450000 -2.590000 2.974409,
6.450000 -2.410000 4.960630,
6.550000 -2.410000 4.960630,
6.550000 -2.590000 4.960630,
6.450000 -2.590000 4.960630,
6.450000 -3.410000 2.974409,
6.550000 -3.410000 2.974409,
6.550000 -3.590000 2.974409,
6.450000 -3.590000 2.974409,
6.450000 -3.410000 4.960630,
6.550000 -3.410000 4.960630,
6.550000 -3.590000 4.960630,
6.450000 -3.590000 4.960630,
6.450000 -4.410000 2.974409,
6.550000 -4.410000 2.974409,
6.550000 -4.590000 2.974409,
6.450000 -4.590000 2.974409,
6.450000 -4.410000 4.960630,
6.550000 -4.410000 4.960630,
6.550000 -4.590000 4.960630,
6.450000 -4.590000 4.960630,
6.450000 -5.410000 2.974409,
6.550000 -5.410000 2.974409,
6.550000 -5.590000 2.974409,
6.450000 -5.590000 2.974409,
6.450000 -5.410000 4.960630,
6.550000 -5.410000 4.960630,
6.550000 -5.590000 4.960630,
6.450000 -5.590000 4.960630,
6.450000 -6.410000 2.974409,
6.550000 -6.410000 2.974409,
6.550000 -6.590000 2.974409,
6.450000 -6.590000 2.974409,
6.450000 -6.410000 4.960630,
6.550000 -6.410000 4.960630,
6.550000 -6.590000 4.960630,
6.450000 -6.590000 4.960630,
6.450000 -7.410000 2.974409,
6.550000 -7.410000 2.974409,
6.550000 -7.590000 2.974409,
6.450000 -7.590000 2.974409,
6.450000 -7.410000 4.960630,
6.550000 -7.410000 4.960630,
6.550000 -7.590000 4.960630,
6.450000 -7.590000 4.960630,
6.450000 -8.410000 2.974409,
6.550000 -8.410000 2.974409,
6.550000 -8.590000 2.974409,
6.450000 -8.590000 2.974409,
6.450000 -8.410000 4.960630,
6.550000 -8.410000 4.960630,
6.550000 -8.590000 4.960630,
6.450000 -8.590000 4.960630,
6.450000 -9.410000 2.974409,
6.550000 -9.410000 2.974409,
6.550000 -9.590000 2.974409,
6.450000 -9.590000 2.974409,
6.450000 -9.410000 4.960630,
6.550000 -9.410000 4.960630,
6.550000 -9.590000 4.960630,
6.450000 -9.590000 4.960630,
6.450000 -10.410000 2.974409,
6.550000 -10.410000 2.974409,
6.550000 -10.590000 2.974409,
6.450000 -10.590000 2.974409,
6.450000 -10.410000 4.960630,
6.550000 -10.410000 4.960630,
6.550000 -10.590000 4.960630,
6.450000 -10.590000 4.960630,
6.450000 -11.410000 2.974409,
6.550000 -11.410000 2.974409,
6.550000 -11.590000 2.974409,
6.450000 -11.590000 2.974409,
6.450000 -11.410000 4.960630,
6.550000 -11.410000 4.960630,
6.550000 -11.590000 4.960630,
6.450000 -11.590000 4.960630,
6.450000 -12.410000 2.974409,
6.550000 -12.410000 2.974409,
6.550000 -12.590000 2.974409,
6.450000 -12.590000 2.974409,
6.450000 -12.410000 4.960630,
6.550000 -12.410000 4.960630,
6.550000 -12.590000 4.960630,
6.450000 -12.590000 4.960630,
6.450000 -13.410000 2.974409,
6.550000 -13.410000 2.974409,
6.550000 -13.590000 2.974409,
6.450000 -13.590000 2.974409,
6.450000 -13.410000 4.960630,
6.550000 -13.410000 4.960630,
6.550000 -13.590000 4.960630,
6.450000 -13.590000 4.960630,
6.450000 -14.410000 2.974409,
6.550000 -14.410000 2.974409,
6.550000 -14.590000 2.974409,
6.450000 -14.590000 2.974409,
6.450000 -14.410000 4.960630,
6.550000 -14.410000 4.960630,
6.550000 -14.590000 4.960630,
6.450000 -14.590000 4.960630,
] } coordIndex [
0,1,2,3,-1,
4,5,1,0,-1,
5,6,2,1,-1,
6,7,3,2,-1,
7,4,0,3,-1,
7,6,5,4,-1,
8,9,10,11,-1,
12,13,9,8,-1,
13,14,10,9,-1,
14,15,11,10,-1,
15,12,8,11,-1,
15,14,13,12,-1,
16,17,18,19,-1,
20,21,17,16,-1,
21,22,18,17,-1,
22,23,19,18,-1,
23,20,16,19,-1,
23,22,21,20,-1,
24,25,26,27,-1,
28,29,25,24,-1,
29,30,26,25,-1,
30,31,27,26,-1,
31,28,24,27,-1,
31,30,29,28,-1,
32,33,34,35,-1,
36,37,33,32,-1,
37,38,34,33,-1,
38,39,35,34,-1,
39,36,32,35,-1,
39,38,37,36,-1,
40,41,42,43,-1,
44,45,41,40,-1,
45,46,42,41,-1,
46,47,43,42,-1,
47,44,40,43,-1,
47,46,45,44,-1,
48,49,50,51,-1,
52,53,49,48,-1,
53,54,50,49,-1,
54,55,51,50,-1,
55,52,48,51,-1,
55,54,53,52,-1,
56,57,58,59,-1,
60,61,57,56,-1,
61,62,58,57,-1,
62,63,59,58,-1,
63,60,56,59,-1,
63,62,61,60,-1,
64,65,66,67,-1,
68,69,65,64,-1,
69,70,66,65,-1,
70,71,67,66,-1,
71,68,64,67,-1,
71,70,69,68,-1,
72,73,74,75,-1,
76,77,73,72,-1,
77,78,74,73,-1,
78,79,75,74,-1,
79,76,72,75,-1,
79,78,77,76,-1,
80,81,82,83,-1,
84,85,81,80,-1,
85,86,82,81,-1,
86,87,83,82,-1,
87,84,80,83,-1,
87,86,85,84,-1,
88,89,90,91,-1,
92,93,89,88,-1,
93,94,90,89,-1,
94,95,91,90,-1,
95,92,88,91,-1,
95,94,93,92,-1,
96,97,98,99,-1,
100,101,97,96,-1,
101,102,98,97,-1,
102,103,99,98,-1,
103,100,96,99,-1,
103,102,101,100,-1,
104,105,106,107,-1,
108,109,105,104,-1,
109,110,106,105,-1,
110,111,107,106,-1,
111,108,104,107,-1,
111,110,109,108,-1,
112,113,114,115,-1,
116,117,113,112,-1,
117,118,114,113,-1,
118,119,115,114,-1,
119,116,112,115,-1,
119,118,117,116,-1,
120,121,122,123,-1,
124,125,121,120,-1,
125,126,122,121,-1,
126,127,123,122,-1,
127,124,120,123,-1,
127,126,125,124,-1,
128,129,130,131,-1,
132,133,129,128,-1,
133,134,130,129,-1,
134,135,131,130,-1,
135,132,128,131,-1,
135,134,133,132,-1,
136,137,138,139,-1,
140,141,137,136,-1,
141,142,138,137,-1,
142,143,139,138,-1,
143,140,136,139,-1,
143,142,141,140,-1,
144,145,146,147,-1,
148,149,145,144,-1,
149,150,146,145,-1,
150,151,147,146,-1,
151,148,144,147,-1,
151,150,149,148,-1,
152,153,154,155,-1,
156,157,153,152,-1,
157,158,154,153,-1,
158,159,155,154,-1,
159,156,152,155,-1,
159,158,157,156,-1,
160,161,162,163,-1,
164,165,161,160,-1,
165,166,162,161,-1,
166,167,163,162,-1,
167,164,160,163,-1,
167,166,165,164,-1,
168,169,170,171,-1,
172,173,169,168,-1,
173,174,170,169,-1,
174,175,171,170,-1,
175,172,168,171,-1,
175,174,173,172,-1,
176,177,178,179,-1,
180,181,177,176,-1,
181,182,178,177,-1,
182,183,179,178,-1,
183,180,176,179,-1,
183,182,181,180,-1,
184,185,186,187,-1,
188,189,185,184,-1,
189,190,186,185,-1,
190,191,187,186,-1,
191,188,184,187,-1,
191,190,189,188,-1,
192,193,194,195,-1,
196,197,193,192,-1,
197,198,194,193,-1,
198,199,195,194,-1,
199,196,192,195,-1,
199,198,197,196,-1,
200,201,202,203,-1,
204,205,201,200,-1,
205,206,202,201,-1,
206,207,203,202,-1,
207,204,200,203,-1,
207,206,205,204,-1,
208,209,210,211,-1,
212,213,209,208,-1,
213,214,210,209,-1,
214,215,211,210,-1,
215,212,208,211,-1,
215,214,213,212,-1,
216,217,218,219,-1,
220,221,217,216,-1,
221,222,218,217,-1,
222,223,219,218,-1,
223,220,216,219,-1,
223,222,221,220,-1,
224,225,226,227,-1,
228,229,225,224,-1,
229,230,226,225,-1,
230,231,227,226,-1,
231,228,224,227,-1,
231,230,229,228,-1,
232,233,234,235,-1,
236,237,233,232,-1,
237,238,234,233,-1,
238,239,235,234,-1,
239,236,232,235,-1,
239,238,237,236,-1,
240,241,242,243,-1,
244,245,241,240,-1,
245,246,242,241,-1,
246,247,243,242,-1,
247,244,240,243,-1,
247,246,245,244,-1,
248,249,250,251,-1,
252,253,249,248,-1,
253,254,250,249,-1,
254,255,251,250,-1,
255,252,248,251,-1,
255,254,253,252,-1,
256,257,258,259,-1,
260,261,257,256,-1,
261,262,258,257,-1,
262,263,259,258,-1,
263,260,256,259,-1,
263,262,261,260,-1,
264,265,266,267,-1,
268,269,265,264,-1,
269,270,266,265,-1,
270,271,267,266,-1,
271,268,264,267,-1,
271,270,269,268,-1,
272,273,274,275,-1,
276,277,273,272,-1,
277,278,274,273,-1,
278,279,275,274,-1,
279,276,272,275,-1,
279,278,277,276,-1,
280,281,282,283,-1,
284,285,281,280,-1,
285,286,282,281,-1,
286,287,283,282,-1,
287,284,280,283,-1,
287,286,285,284,-1,
288,289,290,291,-1,
292,293,289,288,-1,
293,294,290,289,-1,
294,295,291,290,-1,
295,292,288,291,-1,
295,294,293,292,-1,
296,297,298,299,-1,
300,301,297,296,-1,
301,302,298,297,-1,
302,303,299,298,-1,
303,300,296,299,-1,
303,302,301,300,-1,
304,305,306,307,-1,
308,309,305,304,-1,
309,310,306,305,-1,
310,311,307,306,-1,
311,308,304,307,-1,
311,310,309,308,-1,
312,313,314,315,-1,
316,317,313,312,-1,
317,318,314,313,-1,
318,319,315,314,-1,
319,316,312,315,-1,
319,318,317,316,-1,
320,321,322,323,-1,
324,325,321,320,-1,
325,326,322,321,-1,
326,327,323,322,-1,
327,324,320,323,-1,
327,326,325,324,-1,
328,329,330,331,-1,
332,333,329,328,-1,
333,334,330,329,-1,
334,335,331,330,-1,
335,332,328,331,-1,
335,334,333,332,-1,
336,337,338,339,-1,
340,341,337,336,-1,
341,342,338,337,-1,
342,343,339,338,-1,
343,340,336,339,-1,
343,342,341,340,-1,
344,345,346,347,-1,
348,349,345,344,-1,
349,350,346,345,-1,
350,351,347,346,-1,
351,348,344,347,-1,
351,350,349,348,-1,
352,353,354,355,-1,
356,357,353,352,-1,
357,358,354,353,-1,
358,359,355,354,-1,
359,356,352,355,-1,
359,358,357,356,-1,
360,361,362,363,-1,
364,365,361,360,-1,
365,366,362,361,-1,
366,367,363,362,-1,
367,364,360,363,-1,
367,366,365,364,-1,
368,369,370,371,-1,
372,373,369,368,-1,
373,374,370,369,-1,
374,375,371,370,-1,
375,372,368,371,-1,
375,374,373,372,-1,
376,377,378,379,-1,
380,381,377,376,-1,
381,382,378,377,-1,
382,383,379,378,-1,
383,380,376,379,-1,
383,382,381,380,-1,
384,385,386,387,-1,
388,389,385,384,-1,
389,390,386,385,-1,
390,391,387,386,-1,
391,388,384,387,-1,
391,390,389,388,-1,
392,393,394,395,-1,
396,397,393,392,-1,
397,398,394,393,-1,
398,399,395,394,-1,
399,396,392,395,-1,
399,398,397,396,-1,
400,401,402,403,-1,
404,405,401,400,-1,
405,406,402,401,-1,
406,407,403,402,-1,
407,404,400,403,-1,
407,406,405,404,-1,
408,409,410,411,-1,
412,413,409,408,-1,
413,414,410,409,-1,
414,415,411,410,-1,
415,412,408,411,-1,
415,414,413,412,-1,
416,417,418,419,-1,
420,421,417,416,-1,
421,422,418,417,-1,
422,423,419,418,-1,
423,420,416,419,-1,
423,422,421,420,-1,
424,425,426,427,-1,
428,429,425,424,-1,
429,430,426,425,-1,
430,431,427,426,-1,
431,428,424,427,-1,
431,430,429,428,-1,
432,433,434,435,-1,
436,437,433,432,-1,
437,438,434,433,-1,
438,439,435,434,-1,
439,436,432,435,-1,
439,438,437,436,-1,
440,441,442,443,-1,
444,445,441,440,-1,
445,446,442,441,-1,
446,447,443,442,-1,
447,444,440,443,-1,
447,446,445,444,-1,
448,449,450,451,-1,
452,453,449,448,-1,
453,454,450,449,-1,
454,455,451,450,-1,
455,452,448,451,-1,
455,454,453,452,-1,
456,457,458,459,-1,
460,461,457,456,-1,
461,462,458,457,-1,
462,463,459,458,-1,
463,460,456,459,-1,
463,462,461,460,-1,
464,465,466,467,-1,
468,469,465,464,-1,
469,470,466,465,-1,
470,471,467,466,-1,
471,468,464,467,-1,
471,470,469,468,-1,
472,473,474,475,-1,
476,477,473,472,-1,
477,478,474,473,-1,
478,479,475,474,-1,
479,476,472,475,-1,
479,478,477,476,-1,
] } }
Shape { appearance Appearance { material Material { diffuseColor 0.11 0.12 0.11 specularColor 0.3 0.3 0.3 shininess 0.15 } }
geometry IndexedFaceSet { solid FALSE creaseAngle 0.6 coord Coordinate { point [
-2.024747 0.472441 5.433071,
-1.900562 0.472441 5.433071,
-1.900562 0.348256 5.433071,
-2.024747 0.348256 5.433071,
-2.024747 0.472441 5.442913,
-1.900562 0.472441 5.442913,
-1.900562 0.348256 5.442913,
-2.024747 0.348256 5.442913,
-1.889764 0.472441 5.433071,
-1.765579 0.472441 5.433071,
-1.765579 0.348256 5.433071,
-1.889764 0.348256 5.433071,
-1.889764 0.472441 5.442913,
-1.765579 0.472441 5.442913,
-1.765579 0.348256 5.442913,
-1.889764 0.348256 5.442913,
-1.754781 0.472441 5.433071,
-1.630596 0.472441 5.433071,
-1.630596 0.348256 5.433071,
-1.754781 0.348256 5.433071,
-1.754781 0.472441 5.442913,
-1.630596 0.472441 5.442913,
-1.630596 0.348256 5.442913,
-1.754781 0.348256 5.442913,
-1.619798 0.472441 5.433071,
-1.495613 0.472441 5.433071,
-1.495613 0.348256 5.433071,
-1.619798 0.348256 5.433071,
-1.619798 0.472441 5.442913,
-1.495613 0.472441 5.442913,
-1.495613 0.348256 5.442913,
-1.619798 0.348256 5.442913,
-2.024747 0.337458 5.433071,
-1.900562 0.337458 5.433071,
-1.900562 0.213273 5.433071,
-2.024747 0.213273 5.433071,
-2.024747 0.337458 5.442913,
-1.900562 0.337458 5.442913,
-1.900562 0.213273 5.442913,
-2.024747 0.213273 5.442913,
-1.484814 0.337458 5.433071,
-1.360630 0.337458 5.433071,
-1.360630 0.213273 5.433071,
-1.484814 0.213273 5.433071,
-1.484814 0.337458 5.442913,
-1.360630 0.337458 5.442913,
-1.360630 0.213273 5.442913,
-1.484814 0.213273 5.442913,
-2.024747 0.202475 5.433071,
-1.900562 0.202475 5.433071,
-1.900562 0.078290 5.433071,
-2.024747 0.078290 5.433071,
-2.024747 0.202475 5.442913,
-1.900562 0.202475 5.442913,
-1.900562 0.078290 5.442913,
-2.024747 0.078290 5.442913,
-1.484814 0.202475 5.433071,
-1.360630 0.202475 5.433071,
-1.360630 0.078290 5.433071,
-1.484814 0.078290 5.433071,
-1.484814 0.202475 5.442913,
-1.360630 0.202475 5.442913,
-1.360630 0.078290 5.442913,
-1.484814 0.078290 5.442913,
-2.024747 0.067492 5.433071,
-1.900562 0.067492 5.433071,
-1.900562 -0.056693 5.433071,
-2.024747 -0.056693 5.433071,
-2.024747 0.067492 5.442913,
-1.900562 0.067492 5.442913,
-1.900562 -0.056693 5.442913,
-2.024747 -0.056693 5.442913,
-1.484814 0.067492 5.433071,
-1.360630 0.067492 5.433071,
-1.360630 -0.056693 5.433071,
-1.484814 -0.056693 5.433071,
-1.484814 0.067492 5.442913,
-1.360630 0.067492 5.442913,
-1.360630 -0.056693 5.442913,
-1.484814 -0.056693 5.442913,
-2.024747 -0.067492 5.433071,
-1.900562 -0.067492 5.433071,
-1.900562 -0.191676 5.433071,
-2.024747 -0.191676 5.433071,
-2.024747 -0.067492 5.442913,
-1.900562 -0.067492 5.442913,
-1.900562 -0.191676 5.442913,
-2.024747 -0.191676 5.442913,
-1.484814 -0.067492 5.433071,
-1.360630 -0.067492 5.433071,
-1.360630 -0.191676 5.433071,
-1.484814 -0.191676 5.433071,
-1.484814 -0.067492 5.442913,
-1.360630 -0.067492 5.442913,
-1.360630 -0.191676 5.442913,
-1.484814 -0.191676 5.442913,
-2.024747 -0.202475 5.433071,
-1.900562 -0.202475 5.433071,
-1.900562 -0.326659 5.433071,
-2.024747 -0.326659 5.433071,
-2.024747 -0.202475 5.442913,
-1.900562 -0.202475 5.442913,
-1.900562 -0.326659 5.442913,
-2.024747 -0.326659 5.442913,
-1.484814 -0.202475 5.433071,
-1.360630 -0.202475 5.433071,
-1.360630 -0.326659 5.433071,
-1.484814 -0.326659 5.433071,
-1.484814 -0.202475 5.442913,
-1.360630 -0.202475 5.442913,
-1.360630 -0.326659 5.442913,
-1.484814 -0.326659 5.442913,
-2.024747 -0.337458 5.433071,
-1.900562 -0.337458 5.433071,
-1.900562 -0.461642 5.433071,
-2.024747 -0.461642 5.433071,
-2.024747 -0.337458 5.442913,
-1.900562 -0.337458 5.442913,
-1.900562 -0.461642 5.442913,
-2.024747 -0.461642 5.442913,
-1.889764 -0.337458 5.433071,
-1.765579 -0.337458 5.433071,
-1.765579 -0.461642 5.433071,
-1.889764 -0.461642 5.433071,
-1.889764 -0.337458 5.442913,
-1.765579 -0.337458 5.442913,
-1.765579 -0.461642 5.442913,
-1.889764 -0.461642 5.442913,
-1.754781 -0.337458 5.433071,
-1.630596 -0.337458 5.433071,
-1.630596 -0.461642 5.433071,
-1.754781 -0.461642 5.433071,
-1.754781 -0.337458 5.442913,
-1.630596 -0.337458 5.442913,
-1.630596 -0.461642 5.442913,
-1.754781 -0.461642 5.442913,
-1.619798 -0.337458 5.433071,
-1.495613 -0.337458 5.433071,
-1.495613 -0.461642 5.433071,
-1.619798 -0.461642 5.433071,
-1.619798 -0.337458 5.442913,
-1.495613 -0.337458 5.442913,
-1.495613 -0.461642 5.442913,
-1.619798 -0.461642 5.442913,
-1.079865 0.472441 5.433071,
-0.955681 0.472441 5.433071,
-0.955681 0.348256 5.433071,
-1.079865 0.348256 5.433071,
-1.079865 0.472441 5.442913,
-0.955681 0.472441 5.442913,
-0.955681 0.348256 5.442913,
-1.079865 0.348256 5.442913,
-0.944882 0.472441 5.433071,
-0.820697 0.472441 5.433071,
-0.820697 0.348256 5.433071,
-0.944882 0.348256 5.433071,
-0.944882 0.472441 5.442913,
-0.820697 0.472441 5.442913,
-0.820697 0.348256 5.442913,
-0.944882 0.348256 5.442913,
-0.809899 0.472441 5.433071,
-0.685714 0.472441 5.433071,
-0.685714 0.348256 5.433071,
-0.809899 0.348256 5.433071,
-0.809899 0.472441 5.442913,
-0.685714 0.472441 5.442913,
-0.685714 0.348256 5.442913,
-0.809899 0.348256 5.442913,
-0.674916 0.472441 5.433071,
-0.550731 0.472441 5.433071,
-0.550731 0.348256 5.433071,
-0.674916 0.348256 5.433071,
-0.674916 0.472441 5.442913,
-0.550731 0.472441 5.442913,
-0.550731 0.348256 5.442913,
-0.674916 0.348256 5.442913,
-1.214848 0.337458 5.433071,
-1.090664 0.337458 5.433071,
-1.090664 0.213273 5.433071,
-1.214848 0.213273 5.433071,
-1.214848 0.337458 5.442913,
-1.090664 0.337458 5.442913,
-1.090664 0.213273 5.442913,
-1.214848 0.213273 5.442913,
-1.214848 0.202475 5.433071,
-1.090664 0.202475 5.433071,
-1.090664 0.078290 5.433071,
-1.214848 0.078290 5.433071,
-1.214848 0.202475 5.442913,
-1.090664 0.202475 5.442913,
-1.090664 0.078290 5.442913,
-1.214848 0.078290 5.442913,
-1.214848 0.067492 5.433071,
-1.090664 0.067492 5.433071,
-1.090664 -0.056693 5.433071,
-1.214848 -0.056693 5.433071,
-1.214848 0.067492 5.442913,
-1.090664 0.067492 5.442913,
-1.090664 -0.056693 5.442913,
-1.214848 -0.056693 5.442913,
-1.214848 -0.067492 5.433071,
-1.090664 -0.067492 5.433071,
-1.090664 -0.191676 5.433071,
-1.214848 -0.191676 5.433071,
-1.214848 -0.067492 5.442913,
-1.090664 -0.067492 5.442913,
-1.090664 -0.191676 5.442913,
-1.214848 -0.191676 5.442913,
-1.214848 -0.202475 5.433071,
-1.090664 -0.202475 5.433071,
-1.090664 -0.326659 5.433071,
-1.214848 -0.326659 5.433071,
-1.214848 -0.202475 5.442913,
-1.090664 -0.202475 5.442913,
-1.090664 -0.326659 5.442913,
-1.214848 -0.326659 5.442913,
-1.079865 -0.337458 5.433071,
-0.955681 -0.337458 5.433071,
-0.955681 -0.461642 5.433071,
-1.079865 -0.461642 5.433071,
-1.079865 -0.337458 5.442913,
-0.955681 -0.337458 5.442913,
-0.955681 -0.461642 5.442913,
-1.079865 -0.461642 5.442913,
-0.944882 -0.337458 5.433071,
-0.820697 -0.337458 5.433071,
-0.820697 -0.461642 5.433071,
-0.944882 -0.461642 5.433071,
-0.944882 -0.337458 5.442913,
-0.820697 -0.337458 5.442913,
-0.820697 -0.461642 5.442913,
-0.944882 -0.461642 5.442913,
-0.809899 -0.337458 5.433071,
-0.685714 -0.337458 5.433071,
-0.685714 -0.461642 5.433071,
-0.809899 -0.461642 5.433071,
-0.809899 -0.337458 5.442913,
-0.685714 -0.337458 5.442913,
-0.685714 -0.461642 5.442913,
-0.809899 -0.461642 5.442913,
-0.674916 -0.337458 5.433071,
-0.550731 -0.337458 5.433071,
-0.550731 -0.461642 5.433071,
-0.674916 -0.461642 5.433071,
-0.674916 -0.337458 5.442913,
-0.550731 -0.337458 5.442913,
-0.550731 -0.461642 5.442913,
-0.674916 -0.461642 5.442913,
-0.134983 0.472441 5.433071,
-0.010799 0.472441 5.433071,
-0.010799 0.348256 5.433071,
-0.134983 0.348256 5.433071,
-0.134983 0.472441 5.442913,
-0.010799 0.472441 5.442913,
-0.010799 0.348256 5.442913,
-0.134983 0.348256 5.442913,
0.000000 0.472441 5.433071,
0.124184 0.472441 5.433071,
0.124184 0.348256 5.433071,
0.000000 0.348256 5.433071,
0.000000 0.472441 5.442913,
0.124184 0.472441 5.442913,
0.124184 0.348256 5.442913,
0.000000 0.348256 5.442913,
0.134983 0.472441 5.433071,
0.259168 0.472441 5.433071,
0.259168 0.348256 5.433071,
0.134983 0.348256 5.433071,
0.134983 0.472441 5.442913,
0.259168 0.472441 5.442913,
0.259168 0.348256 5.442913,
0.134983 0.348256 5.442913,
0.000000 0.337458 5.433071,
0.124184 0.337458 5.433071,
0.124184 0.213273 5.433071,
0.000000 0.213273 5.433071,
0.000000 0.337458 5.442913,
0.124184 0.337458 5.442913,
0.124184 0.213273 5.442913,
0.000000 0.213273 5.442913,
0.000000 0.202475 5.433071,
0.124184 0.202475 5.433071,
0.124184 0.078290 5.433071,
0.000000 0.078290 5.433071,
0.000000 0.202475 5.442913,
0.124184 0.202475 5.442913,
0.124184 0.078290 5.442913,
0.000000 0.078290 5.442913,
0.000000 0.067492 5.433071,
0.124184 0.067492 5.433071,
0.124184 -0.056693 5.433071,
0.000000 -0.056693 5.433071,
0.000000 0.067492 5.442913,
0.124184 0.067492 5.442913,
0.124184 -0.056693 5.442913,
0.000000 -0.056693 5.442913,
0.000000 -0.067492 5.433071,
0.124184 -0.067492 5.433071,
0.124184 -0.191676 5.433071,
0.000000 -0.191676 5.433071,
0.000000 -0.067492 5.442913,
0.124184 -0.067492 5.442913,
0.124184 -0.191676 5.442913,
0.000000 -0.191676 5.442913,
-0.404949 -0.202475 5.433071,
-0.280765 -0.202475 5.433071,
-0.280765 -0.326659 5.433071,
-0.404949 -0.326659 5.433071,
-0.404949 -0.202475 5.442913,
-0.280765 -0.202475 5.442913,
-0.280765 -0.326659 5.442913,
-0.404949 -0.326659 5.442913,
0.000000 -0.202475 5.433071,
0.124184 -0.202475 5.433071,
0.124184 -0.326659 5.433071,
0.000000 -0.326659 5.433071,
0.000000 -0.202475 5.442913,
0.124184 -0.202475 5.442913,
0.124184 -0.326659 5.442913,
0.000000 -0.326659 5.442913,
-0.269966 -0.337458 5.433071,
-0.145782 -0.337458 5.433071,
-0.145782 -0.461642 5.433071,
-0.269966 -0.461642 5.433071,
-0.269966 -0.337458 5.442913,
-0.145782 -0.337458 5.442913,
-0.145782 -0.461642 5.442913,
-0.269966 -0.461642 5.442913,
-0.134983 -0.337458 5.433071,
-0.010799 -0.337458 5.433071,
-0.010799 -0.461642 5.433071,
-0.134983 -0.461642 5.433071,
-0.134983 -0.337458 5.442913,
-0.010799 -0.337458 5.442913,
-0.010799 -0.461642 5.442913,
-0.134983 -0.461642 5.442913,
0.674916 0.472441 5.433071,
0.799100 0.472441 5.433071,
0.799100 0.348256 5.433071,
0.674916 0.348256 5.433071,
0.674916 0.472441 5.442913,
0.799100 0.472441 5.442913,
0.799100 0.348256 5.442913,
0.674916 0.348256 5.442913,
0.539933 0.337458 5.433071,
0.664117 0.337458 5.433071,
0.664117 0.213273 5.433071,
0.539933 0.213273 5.433071,
0.539933 0.337458 5.442913,
0.664117 0.337458 5.442913,
0.664117 0.213273 5.442913,
0.539933 0.213273 5.442913,
0.674916 0.337458 5.433071,
0.799100 0.337458 5.433071,
0.799100 0.213273 5.433071,
0.674916 0.213273 5.433071,
0.674916 0.337458 5.442913,
0.799100 0.337458 5.442913,
0.799100 0.213273 5.442913,
0.674916 0.213273 5.442913,
0.674916 0.202475 5.433071,
0.799100 0.202475 5.433071,
0.799100 0.078290 5.433071,
0.674916 0.078290 5.433071,
0.674916 0.202475 5.442913,
0.799100 0.202475 5.442913,
0.799100 0.078290 5.442913,
0.674916 0.078290 5.442913,
0.674916 0.067492 5.433071,
0.799100 0.067492 5.433071,
0.799100 -0.056693 5.433071,
0.674916 -0.056693 5.433071,
0.674916 0.067492 5.442913,
0.799100 0.067492 5.442913,
0.799100 -0.056693 5.442913,
0.674916 -0.056693 5.442913,
0.674916 -0.067492 5.433071,
0.799100 -0.067492 5.433071,
0.799100 -0.191676 5.433071,
0.674916 -0.191676 5.433071,
0.674916 -0.067492 5.442913,
0.799100 -0.067492 5.442913,
0.799100 -0.191676 5.442913,
0.674916 -0.191676 5.442913,
0.674916 -0.202475 5.433071,
0.799100 -0.202475 5.433071,
0.799100 -0.326659 5.433071,
0.674916 -0.326659 5.433071,
0.674916 -0.202475 5.442913,
0.799100 -0.202475 5.442913,
0.799100 -0.326659 5.442913,
0.674916 -0.326659 5.442913,
0.539933 -0.337458 5.433071,
0.664117 -0.337458 5.433071,
0.664117 -0.461642 5.433071,
0.539933 -0.461642 5.433071,
0.539933 -0.337458 5.442913,
0.664117 -0.337458 5.442913,
0.664117 -0.461642 5.442913,
0.539933 -0.461642 5.442913,
0.674916 -0.337458 5.433071,
0.799100 -0.337458 5.433071,
0.799100 -0.461642 5.433071,
0.674916 -0.461642 5.433071,
0.674916 -0.337458 5.442913,
0.799100 -0.337458 5.442913,
0.799100 -0.461642 5.442913,
0.674916 -0.461642 5.442913,
0.809899 -0.337458 5.433071,
0.934083 -0.337458 5.433071,
0.934083 -0.461642 5.433071,
0.809899 -0.461642 5.433071,
0.809899 -0.337458 5.442913,
0.934083 -0.337458 5.442913,
0.934083 -0.461642 5.442913,
0.809899 -0.461642 5.442913,
1.484814 0.472441 5.433071,
1.608999 0.472441 5.433071,
1.608999 0.348256 5.433071,
1.484814 0.348256 5.433071,
1.484814 0.472441 5.442913,
1.608999 0.472441 5.442913,
1.608999 0.348256 5.442913,
1.484814 0.348256 5.442913,
1.349831 0.337458 5.433071,
1.474016 0.337458 5.433071,
1.474016 0.213273 5.433071,
1.349831 0.213273 5.433071,
1.349831 0.337458 5.442913,
1.474016 0.337458 5.442913,
1.474016 0.213273 5.442913,
1.349831 0.213273 5.442913,
1.484814 0.337458 5.433071,
1.608999 0.337458 5.433071,
1.608999 0.213273 5.433071,
1.484814 0.213273 5.433071,
1.484814 0.337458 5.442913,
1.608999 0.337458 5.442913,
1.608999 0.213273 5.442913,
1.484814 0.213273 5.442913,
1.484814 0.202475 5.433071,
1.608999 0.202475 5.433071,
1.608999 0.078290 5.433071,
1.484814 0.078290 5.433071,
1.484814 0.202475 5.442913,
1.608999 0.202475 5.442913,
1.608999 0.078290 5.442913,
1.484814 0.078290 5.442913,
1.484814 0.067492 5.433071,
1.608999 0.067492 5.433071,
1.608999 -0.056693 5.433071,
1.484814 -0.056693 5.433071,
1.484814 0.067492 5.442913,
1.608999 0.067492 5.442913,
1.608999 -0.056693 5.442913,
1.484814 -0.056693 5.442913,
1.484814 -0.067492 5.433071,
1.608999 -0.067492 5.433071,
1.608999 -0.191676 5.433071,
1.484814 -0.191676 5.433071,
1.484814 -0.067492 5.442913,
1.608999 -0.067492 5.442913,
1.608999 -0.191676 5.442913,
1.484814 -0.191676 5.442913,
1.484814 -0.202475 5.433071,
1.608999 -0.202475 5.433071,
1.608999 -0.326659 5.433071,
1.484814 -0.326659 5.433071,
1.484814 -0.202475 5.442913,
1.608999 -0.202475 5.442913,
1.608999 -0.326659 5.442913,
1.484814 -0.326659 5.442913,
1.349831 -0.337458 5.433071,
1.474016 -0.337458 5.433071,
1.474016 -0.461642 5.433071,
1.349831 -0.461642 5.433071,
1.349831 -0.337458 5.442913,
1.474016 -0.337458 5.442913,
1.474016 -0.461642 5.442913,
1.349831 -0.461642 5.442913,
1.484814 -0.337458 5.433071,
1.608999 -0.337458 5.433071,
1.608999 -0.461642 5.433071,
1.484814 -0.461642 5.433071,
1.484814 -0.337458 5.442913,
1.608999 -0.337458 5.442913,
1.608999 -0.461642 5.442913,
1.484814 -0.461642 5.442913,
1.619798 -0.337458 5.433071,
1.743982 -0.337458 5.433071,
1.743982 -0.461642 5.433071,
1.619798 -0.461642 5.433071,
1.619798 -0.337458 5.442913,
1.743982 -0.337458 5.442913,
1.743982 -0.461642 5.442913,
1.619798 -0.461642 5.442913,
-5.275591 13.976378 5.425197,
-5.284981 13.905050 5.425197,
-5.312513 13.838583 5.425197,
-5.356309 13.781506 5.425197,
-5.413386 13.737710 5.425197,
-5.479853 13.710178 5.425197,
-5.551181 13.700787 5.425197,
-5.622509 13.710178 5.425197,
-5.688976 13.737710 5.425197,
-5.746053 13.781506 5.425197,
-5.789850 13.838583 5.425197,
-5.817381 13.905050 5.425197,
-5.826772 13.976378 5.425197,
-5.817381 14.047706 5.425197,
-5.789850 14.114173 5.425197,
-5.746053 14.171250 5.425197,
-5.688976 14.215046 5.425197,
-5.622509 14.242578 5.425197,
-5.551181 14.251969 5.425197,
-5.479853 14.242578 5.425197,
-5.413386 14.215046 5.425197,
-5.356309 14.171250 5.425197,
-5.312513 14.114173 5.425197,
-5.284981 14.047706 5.425197,
-5.275591 13.976378 5.437008,
-5.284981 13.905050 5.437008,
-5.312513 13.838583 5.437008,
-5.356309 13.781506 5.437008,
-5.413386 13.737710 5.437008,
-5.479853 13.710178 5.437008,
-5.551181 13.700787 5.437008,
-5.622509 13.710178 5.437008,
-5.688976 13.737710 5.437008,
-5.746053 13.781506 5.437008,
-5.789850 13.838583 5.437008,
-5.817381 13.905050 5.437008,
-5.826772 13.976378 5.437008,
-5.817381 14.047706 5.437008,
-5.789850 14.114173 5.437008,
-5.746053 14.171250 5.437008,
-5.688976 14.215046 5.437008,
-5.622509 14.242578 5.437008,
-5.551181 14.251969 5.437008,
-5.479853 14.242578 5.437008,
-5.413386 14.215046 5.437008,
-5.356309 14.171250 5.437008,
-5.312513 14.114173 5.437008,
-5.284981 14.047706 5.437008,
] } coordIndex [
0,1,2,3,-1,
4,5,1,0,-1,
5,6,2,1,-1,
6,7,3,2,-1,
7,4,0,3,-1,
7,6,5,4,-1,
8,9,10,11,-1,
12,13,9,8,-1,
13,14,10,9,-1,
14,15,11,10,-1,
15,12,8,11,-1,
15,14,13,12,-1,
16,17,18,19,-1,
20,21,17,16,-1,
21,22,18,17,-1,
22,23,19,18,-1,
23,20,16,19,-1,
23,22,21,20,-1,
24,25,26,27,-1,
28,29,25,24,-1,
29,30,26,25,-1,
30,31,27,26,-1,
31,28,24,27,-1,
31,30,29,28,-1,
32,33,34,35,-1,
36,37,33,32,-1,
37,38,34,33,-1,
38,39,35,34,-1,
39,36,32,35,-1,
39,38,37,36,-1,
40,41,42,43,-1,
44,45,41,40,-1,
45,46,42,41,-1,
46,47,43,42,-1,
47,44,40,43,-1,
47,46,45,44,-1,
48,49,50,51,-1,
52,53,49,48,-1,
53,54,50,49,-1,
54,55,51,50,-1,
55,52,48,51,-1,
55,54,53,52,-1,
56,57,58,59,-1,
60,61,57,56,-1,
61,62,58,57,-1,
62,63,59,58,-1,
63,60,56,59,-1,
63,62,61,60,-1,
64,65,66,67,-1,
68,69,65,64,-1,
69,70,66,65,-1,
70,71,67,66,-1,
71,68,64,67,-1,
71,70,69,68,-1,
72,73,74,75,-1,
76,77,73,72,-1,
77,78,74,73,-1,
78,79,75,74,-1,
79,76,72,75,-1,
79,78,77,76,-1,
80,81,82,83,-1,
84,85,81,80,-1,
85,86,82,81,-1,
86,87,83,82,-1,
87,84,80,83,-1,
87,86,85,84,-1,
88,89,90,91,-1,
92,93,89,88,-1,
93,94,90,89,-1,
94,95,91,90,-1,
95,92,88,91,-1,
95,94,93,92,-1,
96,97,98,99,-1,
100,101,97,96,-1,
101,102,98,97,-1,
102,103,99,98,-1,
103,100,96,99,-1,
103,102,101,100,-1,
104,105,106,107,-1,
108,109,105,104,-1,
109,110,106,105,-1,
110,111,107,106,-1,
111,108,104,107,-1,
111,110,109,108,-1,
112,113,114,115,-1,
116,117,113,112,-1,
117,118,114,113,-1,
118,119,115,114,-1,
119,116,112,115,-1,
119,118,117,116,-1,
120,121,122,123,-1,
124,125,121,120,-1,
125,126,122,121,-1,
126,127,123,122,-1,
127,124,120,123,-1,
127,126,125,124,-1,
128,129,130,131,-1,
132,133,129,128,-1,
133,134,130,129,-1,
134,135,131,130,-1,
135,132,128,131,-1,
135,134,133,132,-1,
136,137,138,139,-1,
140,141,137,136,-1,
141,142,138,137,-1,
142,143,139,138,-1,
143,140,136,139,-1,
143,142,141,140,-1,
144,145,146,147,-1,
148,149,145,144,-1,
149,150,146,145,-1,
150,151,147,146,-1,
151,148,144,147,-1,
151,150,149,148,-1,
152,153,154,155,-1,
156,157,153,152,-1,
157,158,154,153,-1,
158,159,155,154,-1,
159,156,152,155,-1,
159,158,157,156,-1,
160,161,162,163,-1,
164,165,161,160,-1,
165,166,162,161,-1,
166,167,163,162,-1,
167,164,160,163,-1,
167,166,165,164,-1,
168,169,170,171,-1,
172,173,169,168,-1,
173,174,170,169,-1,
174,175,171,170,-1,
175,172,168,171,-1,
175,174,173,172,-1,
176,177,178,179,-1,
180,181,177,176,-1,
181,182,178,177,-1,
182,183,179,178,-1,
183,180,176,179,-1,
183,182,181,180,-1,
184,185,186,187,-1,
188,189,185,184,-1,
189,190,186,185,-1,
190,191,187,186,-1,
191,188,184,187,-1,
191,190,189,188,-1,
192,193,194,195,-1,
196,197,193,192,-1,
197,198,194,193,-1,
198,199,195,194,-1,
199,196,192,195,-1,
199,198,197,196,-1,
200,201,202,203,-1,
204,205,201,200,-1,
205,206,202,201,-1,
206,207,203,202,-1,
207,204,200,203,-1,
207,206,205,204,-1,
208,209,210,211,-1,
212,213,209,208,-1,
213,214,210,209,-1,
214,215,211,210,-1,
215,212,208,211,-1,
215,214,213,212,-1,
216,217,218,219,-1,
220,221,217,216,-1,
221,222,218,217,-1,
222,223,219,218,-1,
223,220,216,219,-1,
223,222,221,220,-1,
224,225,226,227,-1,
228,229,225,224,-1,
229,230,226,225,-1,
230,231,227,226,-1,
231,228,224,227,-1,
231,230,229,228,-1,
232,233,234,235,-1,
236,237,233,232,-1,
237,238,234,233,-1,
238,239,235,234,-1,
239,236,232,235,-1,
239,238,237,236,-1,
240,241,242,243,-1,
244,245,241,240,-1,
245,246,242,241,-1,
246,247,243,242,-1,
247,244,240,243,-1,
247,246,245,244,-1,
248,249,250,251,-1,
252,253,249,248,-1,
253,254,250,249,-1,
254,255,251,250,-1,
255,252,248,251,-1,
255,254,253,252,-1,
256,257,258,259,-1,
260,261,257,256,-1,
261,262,258,257,-1,
262,263,259,258,-1,
263,260,256,259,-1,
263,262,261,260,-1,
264,265,266,267,-1,
268,269,265,264,-1,
269,270,266,265,-1,
270,271,267,266,-1,
271,268,264,267,-1,
271,270,269,268,-1,
272,273,274,275,-1,
276,277,273,272,-1,
277,278,274,273,-1,
278,279,275,274,-1,
279,276,272,275,-1,
279,278,277,276,-1,
280,281,282,283,-1,
284,285,281,280,-1,
285,286,282,281,-1,
286,287,283,282,-1,
287,284,280,283,-1,
287,286,285,284,-1,
288,289,290,291,-1,
292,293,289,288,-1,
293,294,290,289,-1,
294,295,291,290,-1,
295,292,288,291,-1,
295,294,293,292,-1,
296,297,298,299,-1,
300,301,297,296,-1,
301,302,298,297,-1,
302,303,299,298,-1,
303,300,296,299,-1,
303,302,301,300,-1,
304,305,306,307,-1,
308,309,305,304,-1,
309,310,306,305,-1,
310,311,307,306,-1,
311,308,304,307,-1,
311,310,309,308,-1,
312,313,314,315,-1,
316,317,313,312,-1,
317,318,314,313,-1,
318,319,315,314,-1,
319,316,312,315,-1,
319,318,317,316,-1,
320,321,322,323,-1,
324,325,321,320,-1,
325,326,322,321,-1,
326,327,323,322,-1,
327,324,320,323,-1,
327,326,325,324,-1,
328,329,330,331,-1,
332,333,329,328,-1,
333,334,330,329,-1,
334,335,331,330,-1,
335,332,328,331,-1,
335,334,333,332,-1,
336,337,338,339,-1,
340,341,337,336,-1,
341,342,338,337,-1,
342,343,339,338,-1,
343,340,336,339,-1,
343,342,341,340,-1,
344,345,346,347,-1,
348,349,345,344,-1,
349,350,346,345,-1,
350,351,347,346,-1,
351,348,344,347,-1,
351,350,349,348,-1,
352,353,354,355,-1,
356,357,353,352,-1,
357,358,354,353,-1,
358,359,355,354,-1,
359,356,352,355,-1,
359,358,357,356,-1,
360,361,362,363,-1,
364,365,361,360,-1,
365,366,362,361,-1,
366,367,363,362,-1,
367,364,360,363,-1,
367,366,365,364,-1,
368,369,370,371,-1,
372,373,369,368,-1,
373,374,370,369,-1,
374,375,371,370,-1,
375,372,368,371,-1,
375,374,373,372,-1,
376,377,378,379,-1,
380,381,377,376,-1,
381,382,378,377,-1,
382,383,379,378,-1,
383,380,376,379,-1,
383,382,381,380,-1,
384,385,386,387,-1,
388,389,385,384,-1,
389,390,386,385,-1,
390,391,387,386,-1,
391,388,384,387,-1,
391,390,389,388,-1,
392,393,394,395,-1,
396,397,393,392,-1,
397,398,394,393,-1,
398,399,395,394,-1,
399,396,392,395,-1,
399,398,397,396,-1,
400,401,402,403,-1,
404,405,401,400,-1,
405,406,402,401,-1,
406,407,403,402,-1,
407,404,400,403,-1,
407,406,405,404,-1,
408,409,410,411,-1,
412,413,409,408,-1,
413,414,410,409,-1,
414,415,411,410,-1,
415,412,408,411,-1,
415,414,413,412,-1,
416,417,418,419,-1,
420,421,417,416,-1,
421,422,418,417,-1,
422,423,419,418,-1,
423,420,416,419,-1,
423,422,421,420,-1,
424,425,426,427,-1,
428,429,425,424,-1,
429,430,426,425,-1,
430,431,427,426,-1,
431,428,424,427,-1,
431,430,429,428,-1,
432,433,434,435,-1,
436,437,433,432,-1,
437,438,434,433,-1,
438,439,435,434,-1,
439,436,432,435,-1,
439,438,437,436,-1,
440,441,442,443,-1,
444,445,441,440,-1,
445,446,442,441,-1,
446,447,443,442,-1,
447,444,440,443,-1,
447,446,445,444,-1,
448,449,450,451,-1,
452,453,449,448,-1,
453,454,450,449,-1,
454,455,451,450,-1,
455,452,448,451,-1,
455,454,453,452,-1,
456,457,458,459,-1,
460,461,457,456,-1,
461,462,458,457,-1,
462,463,459,458,-1,
463,460,456,459,-1,
463,462,461,460,-1,
464,465,466,467,-1,
468,469,465,464,-1,
469,470,466,465,-1,
470,471,467,466,-1,
471,468,464,467,-1,
471,470,469,468,-1,
472,473,474,475,-1,
476,477,473,472,-1,
477,478,474,473,-1,
478,479,475,474,-1,
479,476,472,475,-1,
479,478,477,476,-1,
480,481,482,483,-1,
484,485,481,480,-1,
485,486,482,481,-1,
486,487,483,482,-1,
487,484,480,483,-1,
487,486,485,484,-1,
488,489,490,491,-1,
492,493,489,488,-1,
493,494,490,489,-1,
494,495,491,490,-1,
495,492,488,491,-1,
495,494,493,492,-1,
496,497,498,499,500,501,502,503,504,505,506,507,508,509,510,511,512,513,514,515,516,517,518,519,-1,
543,542,541,540,539,538,537,536,535,534,533,532,531,530,529,528,527,526,525,524,523,522,521,520,-1,
520,521,497,496,-1,
521,522,498,497,-1,
522,523,499,498,-1,
523,524,500,499,-1,
524,525,501,500,-1,
525,526,502,501,-1,
526,527,503,502,-1,
527,528,504,503,-1,
528,529,505,504,-1,
529,530,506,505,-1,
530,531,507,506,-1,
531,532,508,507,-1,
532,533,509,508,-1,
533,534,510,509,-1,
534,535,511,510,-1,
535,536,512,511,-1,
536,537,513,512,-1,
537,538,514,513,-1,
538,539,515,514,-1,
539,540,516,515,-1,
540,541,517,516,-1,
541,542,518,517,-1,
542,543,519,518,-1,
543,520,496,519,-1,
] } }
